<?xml version="1.0" ?><!DOCTYPE svg  PUBLIC '-//W3C//DTD SVG 1.1//EN'  'http://www.w3.org/Graphics/SVG/1.1/DTD/svg11.dtd'><svg height="512px" style="enable-background:new 0 0 512 512;" version="1.1" viewBox="0 0 512 512" width="512px" xml:space="preserve" xmlns="http://www.w3.org/2000/svg" xmlns:xlink="http://www.w3.org/1999/xlink"><g id="_x31_34-airbnb_x2C__air_bnb"><g><path d="M339.447,227.254c-17.725-37.352-35.427-74.719-47.191-99.661c-6.148-13.144-19.423-21.604-33.871-21.604    c-14.372,0-27.604,8.381-33.748,21.313c-13.57,28.901-35.113,74.257-55.416,117.053c-14.91,31.398-29.153,61.39-39.115,82.515    c-3.188,6.729-4.869,14.149-4.869,21.505c0,28.147,22.907,51.033,51.071,51.033c18.836,0,44.657-15.594,67.478-37.721    c-25.423-29.62-43.753-65.52-43.753-95.321c0-32.151,26.177-58.309,58.353-58.309c32.173,0,58.35,26.157,58.35,58.309    c0,29.824-18.334,65.701-43.754,95.321c22.819,22.127,48.64,37.721,67.476,37.721c28.165,0,51.071-22.886,51.048-51.033    c0-7.355-1.676-14.775-4.865-21.482C374.854,301.928,357.172,264.6,339.447,227.254z"/><path d="M258.385,228.994c-20.6,0-37.378,16.768-37.378,37.37c0,24.939,15.959,54.723,37.378,79.767    c21.392-25.064,37.372-54.827,37.372-79.767C295.757,245.762,278.979,228.994,258.385,228.994z"/><path d="M376,16H136C69.726,16,16,69.726,16,136v240c0,66.274,53.726,120,120,120h240c66.274,0,120-53.726,120-120V136    C496,69.726,442.274,16,376,16z M340.456,420.368c-25.594,0-56.065-17.795-82.071-43.137    c-26.012,25.342-56.483,43.137-82.077,43.137c-39.722,0-72.043-32.298-72.023-71.973c0-10.437,2.375-20.98,6.884-30.474    c9.938-21.108,24.202-51.122,39.111-82.537c20.285-42.756,41.824-88.07,55.376-116.993c9.604-20.267,30.308-33.366,52.729-33.366    c22.564,0,43.309,13.226,52.871,33.66c11.768,24.899,29.447,62.248,47.174,99.596c17.723,37.35,35.425,74.718,47.193,99.658    c4.486,9.476,6.877,20.02,6.877,30.434C412.5,388.07,380.179,420.368,340.456,420.368z"/></g></g><g id="Layer_1"/></svg>