<?xml version="1.0" ?><svg fill="none" height="26" viewBox="0 0 78 26" width="78" xmlns="http://www.w3.org/2000/svg"><path d="M9.94731 9.15251V11.7926H16.3195C16.0047 15.4948 12.8942 17.0736 9.9581 17.0736C6.20168 17.0736 2.92375 14.1469 2.92375 10.0448C2.92375 6.04873 6.04845 2.9712 9.96635 2.9712C12.9891 2.9712 14.7703 4.8793 14.7703 4.8793L16.6371 2.96502C16.6371 2.96502 14.241 0.323608 9.87093 0.323608C4.3062 0.323532 0.0012207 4.97424 0.0012207 9.99764C0.0012207 14.92 4.05077 19.7198 10.0128 19.7198C15.2564 19.7198 19.0947 16.1628 19.0947 10.9028C19.0947 9.79317 18.932 9.15182 18.932 9.15182L9.94731 9.15251ZM26.2923 7.24053C22.6055 7.24053 19.9634 10.0947 19.9634 13.4234C19.9634 16.8013 22.5261 19.7085 26.3356 19.7085C29.7842 19.7085 32.6094 17.0984 32.6094 13.4959C32.6094 9.36698 29.323 7.24053 26.2923 7.24053ZM26.3289 9.68922C28.1419 9.68922 29.86 11.1407 29.86 13.4795C29.86 15.7686 28.1493 17.2615 26.3206 17.2615C24.3114 17.2615 22.7263 15.668 22.7263 13.4613C22.7263 11.3019 24.2917 9.68922 26.3289 9.68922ZM40.0567 7.24053C36.3699 7.24053 33.7278 10.0947 33.7278 13.4234C33.7278 16.8013 36.2905 19.7085 40.1 19.7085C43.5486 19.7085 46.3738 17.0984 46.3738 13.4959C46.3738 9.36698 43.0874 7.24053 40.0567 7.24053ZM40.0933 9.68922C41.9063 9.68922 43.6244 11.1407 43.6244 13.4795C43.6244 15.7686 41.9137 17.2615 40.085 17.2615C38.0758 17.2615 36.4907 15.668 36.4907 13.4613C36.4907 11.3019 38.0561 9.68922 40.0933 9.68922ZM53.5575 7.24709C50.1735 7.24709 47.5136 10.182 47.5136 13.4761C47.5136 17.2284 50.5973 19.7167 53.4991 19.7167C55.2934 19.7167 56.2475 19.0114 56.9519 18.2019V19.4312C56.9519 21.582 55.6331 22.87 53.6425 22.87C51.7195 22.87 50.755 21.4541 50.4198 20.6506L48.0002 21.6522C48.8586 23.4494 50.5865 25.3236 53.6625 25.3236C57.0271 25.3236 59.5915 23.2251 59.5915 18.824V7.62192H56.952V8.67793C56.1403 7.81189 55.0304 7.24724 53.5575 7.24724V7.24709ZM53.8024 9.69082C55.4615 9.69082 57.1651 11.0937 57.1651 13.4893C57.1651 15.9243 55.4651 17.2663 53.7657 17.2663C51.9617 17.2663 50.283 15.8158 50.283 13.5124C50.283 11.1191 52.0264 9.69082 53.8024 9.69082H53.8024ZM71.3276 7.23221C68.1355 7.23221 65.4553 9.74707 65.4553 13.4579C65.4553 17.3846 68.4427 19.7134 71.6342 19.7134C74.2978 19.7134 75.9326 18.2704 76.9083 16.9775L74.732 15.5436C74.1673 16.4115 73.2231 17.2597 71.6475 17.2597C69.8777 17.2597 69.0639 16.3 68.5597 15.3704L77.0012 11.9019L76.563 10.8854C75.7475 8.89492 73.8452 7.23259 71.3279 7.23259L71.3276 7.23221ZM71.4376 9.62976C72.5878 9.62976 73.4156 10.2353 73.7671 10.9614L68.1298 13.2946C67.8868 11.4882 69.615 9.62976 71.4376 9.62976ZM61.4309 19.3433H64.2037V0.968315H61.4309V19.3433Z" fill="black"/></svg>